<?xml version="1.0" encoding="UTF-8" standalone="no"?>
<!-- Created with Inkscape (http://www.inkscape.org/) -->

<svg
   xmlns:dc="http://purl.org/dc/elements/1.1/"
   xmlns:cc="http://creativecommons.org/ns#"
   xmlns:rdf="http://www.w3.org/1999/02/22-rdf-syntax-ns#"
   xmlns:svg="http://www.w3.org/2000/svg"
   xmlns="http://www.w3.org/2000/svg"
   xmlns:sodipodi="http://sodipodi.sourceforge.net/DTD/sodipodi-0.dtd"
   xmlns:inkscape="http://www.inkscape.org/namespaces/inkscape"
   width="207.29065"
   height="32.702908"
   id="svg3096"
   version="1.1"
   inkscape:version="0.91 r13725"
   sodipodi:docname="nabilenayet.svg">
  <defs
     id="defs3098" />
  <sodipodi:namedview
     id="base"
     pagecolor="#ffffff"
     bordercolor="#666666"
     borderopacity="1.0"
     inkscape:pageopacity="0.0"
     inkscape:pageshadow="2"
     inkscape:zoom="2.8"
     inkscape:cx="83.796542"
     inkscape:cy="-6.8598908"
     inkscape:document-units="px"
     inkscape:current-layer="layer1"
     showgrid="false"
     inkscape:window-width="1858"
     inkscape:window-height="1058"
     inkscape:window-x="-8"
     inkscape:window-y="-8"
     inkscape:window-maximized="1"
     fit-margin-top="0"
     fit-margin-left="0"
     fit-margin-right="0"
     fit-margin-bottom="0" />
  <metadata
     id="metadata3101">
    <rdf:RDF>
      <cc:Work
         rdf:about="">
        <dc:format>image/svg+xml</dc:format>
        <dc:type
           rdf:resource="http://purl.org/dc/dcmitype/StillImage" />
        <dc:title />
      </cc:Work>
    </rdf:RDF>
  </metadata>
  <g
     inkscape:label="Layer 1"
     inkscape:groupmode="layer"
     id="layer1"
     transform="translate(-271.35022,-516.01252)">
    <g
       id="g3973"
       transform="matrix(0.59057167,0,0,0.59057167,155.04451,500.09096)"
       style="fill:#232323;fill-opacity:1">
      <g
         style="font-size:38.35598755px;font-style:normal;font-variant:normal;font-weight:normal;font-stretch:normal;text-align:start;line-height:125%;letter-spacing:17.17484665px;word-spacing:0px;text-anchor:start;fill:#232323;fill-opacity:1;stroke:none;font-family:Bebas Neue;-inkscape-font-specification:Bebas Neue"
         id="text2993">
        <path
           d="m 206.13464,68.069641 4.33418,0 0,-26.848845 -3.75884,0 0,16.070951 -0.0767,0 -4.25746,-16.070951 -5.29306,0 0,26.848845 3.79719,0 0,-19.446235 0.0767,0 z"
           id="path2989"
           inkscape:connector-curvature="0"
           style="fill:#232323;fill-opacity:1" />
        <path
           d="m 240.06086,41.220796 -6.17523,0 -4.29582,26.848845 3.87391,0 0.72875,-4.871148 5.178,0 0.72875,4.871148 4.25746,0 z m -3.33692,4.756081 0.0767,0 1.99448,13.577845 -4.06568,0 z"
           id="path2991"
           inkscape:connector-curvature="0"
           style="fill:#232323;fill-opacity:1" />
        <path
           d="m 269.82611,41.220796 -6.36702,0 0,26.848845 6.6355,0 c 2.11274,-0.0064 3.70769,-0.549762 4.78485,-1.630109 1.07714,-1.080344 1.61731,-2.65931 1.62052,-4.736903 l 0,-2.186263 c 0.0104,-1.424737 -0.23094,-2.621747 -0.72396,-3.591033 -0.49304,-0.969263 -1.3001,-1.67724 -2.42119,-2.123936 l 0,-0.07671 c 0.9357,-0.437078 1.6245,-1.097112 2.0664,-1.980103 0.44188,-0.882958 0.66082,-2.012846 0.65684,-3.389666 l 0,-0.958887 c 0.0128,-2.069575 -0.48265,-3.616578 -1.48627,-4.641015 -1.00365,-1.024385 -2.59221,-1.535791 -4.76567,-1.534219 z m -0.26849,14.766865 c 0.95248,-0.01997 1.64608,0.211766 2.08078,0.695193 0.43469,0.48345 0.64884,1.338457 0.64246,2.565024 l 0,2.339685 c -0.002,0.982865 -0.18939,1.673263 -0.56095,2.071196 -0.37158,0.397942 -0.91335,0.58972 -1.62532,0.575333 l -2.41639,0 0,-8.246431 z m 0.15342,-10.931316 c 0.74393,-0.0048 1.28889,0.215773 1.6349,0.661632 0.34599,0.445904 0.51699,1.145891 0.51301,2.099963 l 0,1.495865 c -0.007,1.05799 -0.23254,1.799529 -0.67602,2.224618 -0.44349,0.425123 -1.06198,0.629685 -1.85545,0.613688 l -1.64928,0 0,-7.095766 z"
           id="path2993"
           inkscape:connector-curvature="0"
           style="fill:#232323;fill-opacity:1" />
        <path
           d="m 296.21606,68.069641 4.2191,0 0,-26.848845 -4.2191,0 z"
           id="path2995"
           inkscape:connector-curvature="0"
           style="fill:#232323;fill-opacity:1" />
        <path
           d="m 320.65756,68.069641 11.16145,0 0,-3.835549 -6.94234,0 0,-23.013296 -4.21911,0 z"
           id="path2997"
           inkscape:connector-curvature="0"
           style="fill:#232323;fill-opacity:1" />
        <path
           d="m 378.17961,45.056345 7.28754,0 0,-3.835549 -11.50665,0 0,26.848845 11.50665,0 0,-3.835549 -7.28754,0 0,-7.862876 5.79168,0 0,-3.83555 -5.79168,0 z"
           id="path2999"
           inkscape:connector-curvature="0"
           style="fill:#232323;fill-opacity:1" />
        <path
           d="m 414.23274,68.069641 4.33417,0 0,-26.848845 -3.75883,0 0,16.070951 -0.0767,0 -4.25746,-16.070951 -5.29305,0 0,26.848845 3.79719,0 0,-19.446235 0.0767,0 z"
           id="path3001"
           inkscape:connector-curvature="0"
           style="fill:#232323;fill-opacity:1" />
        <path
           d="m 448.15895,41.220796 -6.17523,0 -4.29582,26.848845 3.87391,0 0.72875,-4.871148 5.17799,0 0.72876,4.871148 4.25746,0 z m -3.33693,4.756081 0.0767,0 1.99449,13.577845 -4.06568,0 z"
           id="path3003"
           inkscape:connector-curvature="0"
           style="fill:#232323;fill-opacity:1" />
        <path
           d="m 475.50778,68.069641 4.21911,0 0,-8.898474 5.33141,-17.950371 -4.02732,0 -3.18351,12.235402 -0.0767,0 -3.18351,-12.235402 -4.41088,0 5.33141,17.950371 z"
           id="path3005"
           inkscape:connector-curvature="0"
           style="fill:#232323;fill-opacity:1" />
        <path
           d="m 508.15869,45.056345 7.28754,0 0,-3.835549 -11.50665,0 0,26.848845 11.50665,0 0,-3.835549 -7.28754,0 0,-7.862876 5.79168,0 0,-3.83555 -5.79168,0 z"
           id="path3007"
           inkscape:connector-curvature="0"
           style="fill:#232323;fill-opacity:1" />
        <path
           d="m 533.97088,45.056345 4.41088,0 0,23.013296 4.2191,0 0,-23.013296 4.41088,0 0,-3.835549 -13.04086,0 z"
           id="path3009"
           inkscape:connector-curvature="0"
           style="fill:#232323;fill-opacity:1" />
      </g>
      <g
         style="stroke-width:2;stroke-miterlimit:4;stroke-dasharray:none;fill:#232323;fill-opacity:1"
         transform="translate(0,-1.2279308)"
         id="g3969">
        <path
           sodipodi:nodetypes="cc"
           style="fill:#232323;stroke:#232323;stroke-width:2;stroke-linecap:butt;stroke-linejoin:miter;stroke-miterlimit:4;stroke-opacity:1;stroke-dasharray:none;fill-opacity:1"
           d="m 196.94993,29.178669 350.99013,0"
           id="path3965"
           inkscape:connector-curvature="0" />
        <path
           sodipodi:nodetypes="cc"
           inkscape:connector-curvature="0"
           id="path3967"
           d="m 196.94993,82.565231 350.99013,0"
           style="fill:#232323;stroke:#232323;stroke-width:2;stroke-linecap:butt;stroke-linejoin:miter;stroke-miterlimit:4;stroke-opacity:1;stroke-dasharray:none;fill-opacity:1" />
      </g>
    </g>
  </g>
</svg>
